{
	"asset":{
		"version":"2.0",
		"generator":"Created using the official Cinema 4D glTF Exporter. Previous Build: 1.000x275765."
	},
	"scenes":[{
		"nodes":[0]
	}],
	"nodes":[{
		"translation":[169.20025634765626,
		9499.98046875,
		-148.74368286132813],
		"rotation":[0.7064367532730103,
		0.003447461873292923,
		0.0022398459259420635,
		0.7077642679214478],
		"scale":[55.63920974731445,
		55.63920974731445,
		-55.63920974731445],
		"name":"hand",
		"children":[1]
	},
	{
		"translation":[158.45005798339845,
		-586.7850952148438,
		-344.8896484375],
		"rotation":[-0.7885056138038635,
		1.0622466483587545e-17,
		1.0622466483587545e-17,
		-0.6150275468826294],
		"scale":[1.0,
		1.0,
		1.0],
		"name":"Cube_1",
		"children":[2,
		3]
	},
	{
		"translation":[0.0,
		0.0,
		0.0],
		"rotation":[1.1102230246251566e-16,
		0.0,
		0.0,
		-1.0],
		"scale":[1.0,
		1.0,
		1.0],
		"mesh":0,
		"name":"Cube_1"
	},
	{
		"translation":[-966.8562622070313,
		258.1569519042969,
		-648.0418090820313],
		"rotation":[0.27344685792922976,
		-0.28904783725738528,
		0.4179953336715698,
		0.8166750073432922],
		"scale":[1.0,
		1.0,
		1.0],
		"name":"Root",
		"children":[4]
	},
	{
		"translation":[761.9730224609375,
		-539.2667846679688,
		47.95539855957031],
		"rotation":[-0.8139427304267883,
		-0.07072822004556656,
		0.5515411496162415,
		-0.1682175248861313],
		"scale":[1.0,
		1.0,
		1.0],
		"name":"Joint_2",
		"children":[5]
	},
	{
		"translation":[38.48731231689453,
		0.0000033044354950106937,
		477.5372314453125],
		"rotation":[-0.06205877661705017,
		0.15823598206043244,
		-0.11990795284509659,
		0.9781268835067749],
		"scale":[1.0,
		1.0,
		1.0],
		"name":"Joint_3",
		"children":[6,
		9]
	},
	{
		"translation":[14.180538177490235,
		-130.77601623535157,
		286.2728271484375],
		"rotation":[-0.3023124635219574,
		-0.03161895275115967,
		0.9521575570106506,
		0.031676482409238818],
		"scale":[1.0,
		1.0,
		1.0],
		"name":"5",
		"children":[7]
	},
	{
		"translation":[-8.720900535583496,
		-0.05196740850806236,
		104.40852355957031],
		"rotation":[-0.000765996694099158,
		0.6473723649978638,
		-0.0006506199133582413,
		0.7621731758117676],
		"scale":[1.0,
		1.0,
		1.0],
		"name":"Joint_1",
		"children":[8]
	},
	{
		"translation":[-1.7053025658242404e-13,
		-5.684341886080802e-14,
		88.258544921875],
		"rotation":[2.220446049250313e-16,
		8.604228440844963e-16,
		1.910522504832138e-31,
		-1.0],
		"scale":[1.0,
		1.0,
		1.0],
		"name":"Joint_2_2"
	},
	{
		"translation":[36.44649887084961,
		79.84638214111328,
		323.2177429199219],
		"rotation":[-0.04533323645591736,
		-0.14272932708263398,
		0.01501762866973877,
		0.9886089563369751],
		"scale":[1.0,
		1.0,
		1.0],
		"name":"2",
		"children":[10]
	},
	{
		"translation":[9.276700973510743,
		-13.366337776184082,
		103.90261840820313],
		"rotation":[0.012841924093663693,
		-0.12846459448337556,
		0.08727522939443588,
		0.9877828359603882],
		"scale":[1.0,
		1.0,
		1.0],
		"name":"Joint_1_3",
		"children":[11]
	},
	{
		"translation":[-1.693933882052079e-11,
		5.684341886080802e-14,
		94.38972473144531],
		"rotation":[-1.942890293094024e-16,
		8.915090887740007e-14,
		-1.7321043547841044e-29,
		-1.0],
		"scale":[1.0,
		1.0,
		1.0],
		"name":"Joint_2_4"
	}],
	"meshes":[{
		"primitives":[{
			"attributes":{
				"POSITION":1,
				"NORMAL":2,
				"TEXCOORD_0":3
			},
			"indices":0,
			"material":0
		}]
	}],
	"accessors":[{
		"bufferView":0,
		"type":"SCALAR",
		"componentType":5123,
		"count":1044,
		"byteOffset":0,
		"min":[0],
		"max":[410]
	},
	{
		"bufferView":1,
		"type":"VEC3",
		"componentType":5126,
		"count":411,
		"byteOffset":0,
		"min":[-308.537109375,
		-17.712770462036134,
		-1160.9803466796875],
		"max":[92.45682525634766,
		568.4891357421875,
		96.7399673461914]
	},
	{
		"bufferView":1,
		"type":"VEC3",
		"componentType":5126,
		"count":411,
		"byteOffset":12,
		"min":[-0.9988638162612915,
		-0.994208812713623,
		-0.9989030361175537],
		"max":[0.9990894198417664,
		0.997719407081604,
		0.9926270246505737]
	},
	{
		"bufferView":1,
		"type":"VEC2",
		"componentType":5126,
		"count":411,
		"byteOffset":24,
		"min":[0.0,
		0.0],
		"max":[1.0,
		1.0]
	}],
	"bufferViews":[{
		"buffer":0,
		"byteOffset":0,
		"byteLength":2088,
		"target":34963
	},
	{
		"buffer":0,
		"byteOffset":2088,
		"byteLength":13152,
		"target":34962,
		"byteStride":32
	}],
	"buffers":[{
		"uri":"data:application/octet-stream;base64,",
		"byteLength":15240
	}],
	"materials":[{
		"pbrMetallicRoughness":{
			"baseColorFactor":[1.0,
			1.0,
			1.0,
			1.0],
			"metallicFactor":1.0,
			"roughnessFactor":1.0
		},
		"emissiveFactor":[0.0,
		0.0,
		0.0],
		"alphaMode":"OPAQUE",
		"doubleSided":true
	}]
}